<svg xmlns="http://www.w3.org/2000/svg" xmlns:xlink="http://www.w3.org/1999/xlink" width="500" zoomAndPan="magnify" viewBox="0 0 375 374.999991" height="300" preserveAspectRatio="xMidYMid meet" version="1.0"><defs><g/><clipPath id="81e2c4eeea"><path d="M 26 137 L 124.96875 137 L 124.96875 245.128906 L 26 245.128906 Z M 26 137 " clip-rule="nonzero"/></clipPath><clipPath id="cb768a1289"><path d="M 51 106.378906 L 100 106.378906 L 100 138 L 51 138 Z M 51 106.378906 " clip-rule="nonzero"/></clipPath></defs><g clip-path="url(#81e2c4eeea)"><path fill="#ed1c24" d="M 112.71875 137.59375 L 38.214844 137.59375 C 31.480469 137.59375 26.015625 143.039062 26.015625 149.773438 L 26.015625 202.515625 C 36.621094 210.726562 50.792969 213.789062 64.246094 210.015625 C 82.882812 204.785156 95.851562 187.652344 95.792969 168.359375 C 95.792969 166.15625 97.570312 164.359375 99.769531 164.351562 C 99.785156 164.351562 99.785156 164.351562 99.785156 164.351562 C 101.992188 164.351562 103.777344 166.132812 103.777344 168.332031 C 103.847656 191.199219 88.480469 211.503906 66.402344 217.6875 C 61.839844 218.972656 57.210938 219.589844 52.636719 219.589844 C 43.203125 219.589844 33.984375 216.980469 26.015625 212.171875 L 26.015625 232.941406 C 26.015625 239.667969 31.480469 245.121094 38.214844 245.121094 L 112.71875 245.121094 C 119.457031 245.121094 124.917969 239.667969 124.917969 232.941406 L 124.917969 149.773438 C 124.917969 143.039062 119.457031 137.59375 112.71875 137.59375 Z M 46.453125 186.402344 C 43.234375 187.304688 39.890625 185.433594 38.996094 182.21875 C 38.085938 179.007812 39.964844 175.675781 43.175781 174.765625 C 46.402344 173.871094 49.738281 175.742188 50.640625 178.953125 C 51.542969 182.160156 49.664062 185.5 46.453125 186.402344 Z M 70.726562 179.601562 C 67.5 180.496094 64.164062 178.628906 63.261719 175.414062 C 62.359375 172.207031 64.238281 168.867188 67.449219 167.960938 C 70.667969 167.066406 74.011719 168.933594 74.921875 172.148438 C 75.816406 175.355469 73.9375 178.691406 70.726562 179.601562 Z M 70.726562 179.601562 " fill-opacity="1" fill-rule="nonzero"/></g><g clip-path="url(#cb768a1289)"><path fill="#000000" d="M 99.785156 137.585938 L 91.804688 137.585938 L 91.804688 130.667969 C 91.804688 121.671875 84.476562 114.359375 75.46875 114.359375 C 66.460938 114.359375 59.132812 121.671875 59.132812 130.667969 L 59.132812 137.585938 L 51.144531 137.585938 L 51.144531 130.667969 C 51.144531 117.273438 62.054688 106.378906 75.46875 106.378906 C 88.882812 106.378906 99.792969 117.273438 99.792969 130.667969 L 99.792969 137.585938 Z M 99.785156 137.585938 " fill-opacity="1" fill-rule="nonzero"/></g><g fill="#000000" fill-opacity="1"><g transform="translate(128.960117, 186.069186)"><g><path d="M 32.609375 -19.578125 C 34.753906 -18.828125 36.4375 -17.65625 37.65625 -16.0625 C 38.875 -14.46875 39.484375 -12.546875 39.484375 -10.296875 C 39.484375 -7.003906 38.160156 -4.460938 35.515625 -2.671875 C 32.867188 -0.890625 29.039062 0 24.03125 0 L 3.75 0 L 3.75 -37.546875 L 22.953125 -37.546875 C 27.742188 -37.546875 31.390625 -36.660156 33.890625 -34.890625 C 36.398438 -33.117188 37.65625 -30.734375 37.65625 -27.734375 C 37.65625 -25.941406 37.21875 -24.335938 36.34375 -22.921875 C 35.46875 -21.515625 34.222656 -20.398438 32.609375 -19.578125 Z M 14.265625 -29.875 L 14.265625 -22.640625 L 21.5625 -22.640625 C 25.132812 -22.640625 26.921875 -23.851562 26.921875 -26.28125 C 26.921875 -28.675781 25.132812 -29.875 21.5625 -29.875 Z M 23.171875 -7.671875 C 26.890625 -7.671875 28.75 -8.941406 28.75 -11.484375 C 28.75 -14.015625 26.890625 -15.28125 23.171875 -15.28125 L 14.265625 -15.28125 L 14.265625 -7.671875 Z M 23.171875 -7.671875 "/></g></g></g><g fill="#000000" fill-opacity="1"><g transform="translate(164.743647, 186.069186)"><g><path d="M 15.65625 -29.5625 C 20.488281 -29.5625 24.171875 -28.457031 26.703125 -26.25 C 29.242188 -24.050781 30.515625 -20.679688 30.515625 -16.140625 L 30.515625 0 L 21.03125 0 L 21.03125 -3.75 C 19.5625 -0.925781 16.695312 0.484375 12.4375 0.484375 C 10.1875 0.484375 8.238281 0.09375 6.59375 -0.6875 C 4.945312 -1.476562 3.703125 -2.546875 2.859375 -3.890625 C 2.023438 -5.234375 1.609375 -6.757812 1.609375 -8.46875 C 1.609375 -11.226562 2.660156 -13.367188 4.765625 -14.890625 C 6.878906 -16.410156 10.132812 -17.171875 14.53125 -17.171875 L 20.328125 -17.171875 C 20.148438 -20.242188 18.09375 -21.78125 14.15625 -21.78125 C 12.757812 -21.78125 11.347656 -21.554688 9.921875 -21.109375 C 8.492188 -20.660156 7.28125 -20.039062 6.28125 -19.25 L 2.84375 -26.171875 C 4.445312 -27.242188 6.398438 -28.078125 8.703125 -28.671875 C 11.015625 -29.265625 13.332031 -29.5625 15.65625 -29.5625 Z M 15.28125 -5.953125 C 16.46875 -5.953125 17.503906 -6.238281 18.390625 -6.8125 C 19.285156 -7.382812 19.929688 -8.222656 20.328125 -9.328125 L 20.328125 -11.859375 L 15.9375 -11.859375 C 12.96875 -11.859375 11.484375 -10.875 11.484375 -8.90625 C 11.484375 -8.007812 11.820312 -7.289062 12.5 -6.75 C 13.175781 -6.21875 14.101562 -5.953125 15.28125 -5.953125 Z M 15.28125 -5.953125 "/></g></g></g><g fill="#000000" fill-opacity="1"><g transform="translate(192.962741, 186.069186)"><g><path d="M 18.125 0.484375 C 14.90625 0.484375 12.023438 -0.15625 9.484375 -1.4375 C 6.953125 -2.726562 4.976562 -4.519531 3.5625 -6.8125 C 2.15625 -9.101562 1.453125 -11.695312 1.453125 -14.59375 C 1.453125 -17.488281 2.15625 -20.070312 3.5625 -22.34375 C 4.976562 -24.613281 6.953125 -26.382812 9.484375 -27.65625 C 12.023438 -28.925781 14.90625 -29.5625 18.125 -29.5625 C 21.414062 -29.5625 24.257812 -28.851562 26.65625 -27.4375 C 29.050781 -26.019531 30.75 -24.0625 31.75 -21.5625 L 23.875 -17.546875 C 22.550781 -20.148438 20.617188 -21.453125 18.078125 -21.453125 C 16.253906 -21.453125 14.742188 -20.84375 13.546875 -19.625 C 12.347656 -18.414062 11.75 -16.738281 11.75 -14.59375 C 11.75 -12.40625 12.347656 -10.691406 13.546875 -9.453125 C 14.742188 -8.222656 16.253906 -7.609375 18.078125 -7.609375 C 20.617188 -7.609375 22.550781 -8.914062 23.875 -11.53125 L 31.75 -7.515625 C 30.75 -5.003906 29.050781 -3.039062 26.65625 -1.625 C 24.257812 -0.21875 21.414062 0.484375 18.125 0.484375 Z M 18.125 0.484375 "/></g></g></g><g fill="#000000" fill-opacity="1"><g transform="translate(219.840615, 186.069186)"><g><path d="M 22.203125 -29.5625 C 25.816406 -29.5625 28.722656 -28.488281 30.921875 -26.34375 C 33.117188 -24.195312 34.21875 -20.957031 34.21875 -16.625 L 34.21875 0 L 24.03125 0 L 24.03125 -14.96875 C 24.03125 -18.9375 22.4375 -20.921875 19.25 -20.921875 C 17.5 -20.921875 16.097656 -20.347656 15.046875 -19.203125 C 13.992188 -18.054688 13.46875 -16.335938 13.46875 -14.046875 L 13.46875 0 L 3.265625 0 L 3.265625 -39.796875 L 13.46875 -39.796875 L 13.46875 -26.390625 C 14.570312 -27.429688 15.875 -28.21875 17.375 -28.75 C 18.875 -29.289062 20.484375 -29.5625 22.203125 -29.5625 Z M 22.203125 -29.5625 "/></g></g></g><g fill="#000000" fill-opacity="1"><g transform="translate(251.707807, 186.069186)"><g><path d="M 15.65625 -29.5625 C 20.488281 -29.5625 24.171875 -28.457031 26.703125 -26.25 C 29.242188 -24.050781 30.515625 -20.679688 30.515625 -16.140625 L 30.515625 0 L 21.03125 0 L 21.03125 -3.75 C 19.5625 -0.925781 16.695312 0.484375 12.4375 0.484375 C 10.1875 0.484375 8.238281 0.09375 6.59375 -0.6875 C 4.945312 -1.476562 3.703125 -2.546875 2.859375 -3.890625 C 2.023438 -5.234375 1.609375 -6.757812 1.609375 -8.46875 C 1.609375 -11.226562 2.660156 -13.367188 4.765625 -14.890625 C 6.878906 -16.410156 10.132812 -17.171875 14.53125 -17.171875 L 20.328125 -17.171875 C 20.148438 -20.242188 18.09375 -21.78125 14.15625 -21.78125 C 12.757812 -21.78125 11.347656 -21.554688 9.921875 -21.109375 C 8.492188 -20.660156 7.28125 -20.039062 6.28125 -19.25 L 2.84375 -26.171875 C 4.445312 -27.242188 6.398438 -28.078125 8.703125 -28.671875 C 11.015625 -29.265625 13.332031 -29.5625 15.65625 -29.5625 Z M 15.28125 -5.953125 C 16.46875 -5.953125 17.503906 -6.238281 18.390625 -6.8125 C 19.285156 -7.382812 19.929688 -8.222656 20.328125 -9.328125 L 20.328125 -11.859375 L 15.9375 -11.859375 C 12.96875 -11.859375 11.484375 -10.875 11.484375 -8.90625 C 11.484375 -8.007812 11.820312 -7.289062 12.5 -6.75 C 13.175781 -6.21875 14.101562 -5.953125 15.28125 -5.953125 Z M 15.28125 -5.953125 "/></g></g></g><g fill="#000000" fill-opacity="1"><g transform="translate(279.926905, 186.069186)"><g><path d="M 23.328125 -1.1875 C 22.472656 -0.644531 21.425781 -0.234375 20.1875 0.046875 C 18.957031 0.335938 17.644531 0.484375 16.25 0.484375 C 12.457031 0.484375 9.539062 -0.441406 7.5 -2.296875 C 5.46875 -4.160156 4.453125 -6.9375 4.453125 -10.625 L 4.453125 -20.390625 L 0.21875 -20.390625 L 0.21875 -28 L 4.453125 -28 L 4.453125 -35.5625 L 14.640625 -35.5625 L 14.640625 -28 L 21.296875 -28 L 21.296875 -20.390625 L 14.640625 -20.390625 L 14.640625 -10.734375 C 14.640625 -9.691406 14.914062 -8.875 15.46875 -8.28125 C 16.03125 -7.695312 16.773438 -7.40625 17.703125 -7.40625 C 18.878906 -7.40625 19.914062 -7.707031 20.8125 -8.3125 Z M 23.328125 -1.1875 "/></g></g></g><g fill="#000000" fill-opacity="1"><g transform="translate(159.395337, 232.758792)"><g><path d="M 27.46875 0 L 19.6875 -11.640625 L 12.015625 0 L -0.109375 0 L 13.578125 -18.984375 L 0.484375 -37.546875 L 12.4375 -37.546875 L 19.953125 -26.71875 L 27.359375 -37.546875 L 38.828125 -37.546875 L 25.75 -19.421875 L 39.6875 0 Z M 27.46875 0 "/></g></g></g><g fill="#000000" fill-opacity="1"><g transform="translate(193.462107, 232.758792)"><g><path d="M 21.5625 -29.5625 C 24.207031 -29.5625 26.613281 -28.941406 28.78125 -27.703125 C 30.945312 -26.472656 32.660156 -24.722656 33.921875 -22.453125 C 35.191406 -20.179688 35.828125 -17.539062 35.828125 -14.53125 C 35.828125 -11.53125 35.191406 -8.894531 33.921875 -6.625 C 32.660156 -4.351562 30.945312 -2.597656 28.78125 -1.359375 C 26.613281 -0.128906 24.207031 0.484375 21.5625 0.484375 C 18.164062 0.484375 15.46875 -0.535156 13.46875 -2.578125 L 13.46875 10.40625 L 3.265625 10.40625 L 3.265625 -29.078125 L 12.984375 -29.078125 L 12.984375 -26.171875 C 14.878906 -28.429688 17.738281 -29.5625 21.5625 -29.5625 Z M 19.421875 -7.609375 C 21.203125 -7.609375 22.664062 -8.222656 23.8125 -9.453125 C 24.957031 -10.691406 25.53125 -12.382812 25.53125 -14.53125 C 25.53125 -16.675781 24.957031 -18.363281 23.8125 -19.59375 C 22.664062 -20.832031 21.203125 -21.453125 19.421875 -21.453125 C 17.628906 -21.453125 16.160156 -20.832031 15.015625 -19.59375 C 13.867188 -18.363281 13.296875 -16.675781 13.296875 -14.53125 C 13.296875 -12.382812 13.867188 -10.691406 15.015625 -9.453125 C 16.160156 -8.222656 17.628906 -7.609375 19.421875 -7.609375 Z M 19.421875 -7.609375 "/></g></g></g><g fill="#000000" fill-opacity="1"><g transform="translate(225.275636, 232.758792)"><g><path d="M 12.984375 -25.59375 C 14.015625 -26.914062 15.363281 -27.90625 17.03125 -28.5625 C 18.695312 -29.226562 20.601562 -29.5625 22.75 -29.5625 L 22.75 -20.390625 C 21.8125 -20.492188 21.039062 -20.546875 20.4375 -20.546875 C 18.257812 -20.546875 16.550781 -19.953125 15.3125 -18.765625 C 14.082031 -17.585938 13.46875 -15.785156 13.46875 -13.359375 L 13.46875 0 L 3.265625 0 L 3.265625 -29.078125 L 12.984375 -29.078125 Z M 12.984375 -25.59375 "/></g></g></g><g fill="#000000" fill-opacity="1"><g transform="translate(243.56975, 232.758792)"><g><path d="M 32.984375 -14.484375 C 32.984375 -14.410156 32.929688 -13.570312 32.828125 -11.96875 L 11.6875 -11.96875 C 12.125 -10.457031 12.957031 -9.300781 14.1875 -8.5 C 15.414062 -7.695312 16.960938 -7.296875 18.828125 -7.296875 C 20.222656 -7.296875 21.429688 -7.488281 22.453125 -7.875 C 23.472656 -8.269531 24.5 -8.914062 25.53125 -9.8125 L 30.890625 -4.234375 C 28.066406 -1.085938 23.9375 0.484375 18.5 0.484375 C 15.101562 0.484375 12.117188 -0.15625 9.546875 -1.4375 C 6.972656 -2.726562 4.976562 -4.519531 3.5625 -6.8125 C 2.15625 -9.101562 1.453125 -11.695312 1.453125 -14.59375 C 1.453125 -17.445312 2.140625 -20.007812 3.515625 -22.28125 C 4.890625 -24.550781 6.789062 -26.332031 9.21875 -27.625 C 11.65625 -28.914062 14.394531 -29.5625 17.4375 -29.5625 C 20.332031 -29.5625 22.957031 -28.960938 25.3125 -27.765625 C 27.675781 -26.566406 29.546875 -24.832031 30.921875 -22.5625 C 32.296875 -20.289062 32.984375 -17.597656 32.984375 -14.484375 Z M 17.484375 -22.3125 C 15.910156 -22.3125 14.597656 -21.863281 13.546875 -20.96875 C 12.492188 -20.070312 11.820312 -18.859375 11.53125 -17.328125 L 23.4375 -17.328125 C 23.15625 -18.859375 22.484375 -20.070312 21.421875 -20.96875 C 20.367188 -21.863281 19.054688 -22.3125 17.484375 -22.3125 Z M 17.484375 -22.3125 "/></g></g></g><g fill="#000000" fill-opacity="1"><g transform="translate(272.539922, 232.758792)"><g><path d="M 13.84375 0.484375 C 11.40625 0.484375 9.003906 0.207031 6.640625 -0.34375 C 4.285156 -0.90625 2.394531 -1.628906 0.96875 -2.515625 L 4.015625 -9.5 C 5.335938 -8.675781 6.910156 -8.019531 8.734375 -7.53125 C 10.566406 -7.050781 12.375 -6.8125 14.15625 -6.8125 C 15.800781 -6.8125 16.972656 -6.976562 17.671875 -7.3125 C 18.367188 -7.65625 18.71875 -8.148438 18.71875 -8.796875 C 18.71875 -9.441406 18.296875 -9.894531 17.453125 -10.15625 C 16.617188 -10.425781 15.289062 -10.6875 13.46875 -10.9375 C 11.144531 -11.226562 9.164062 -11.601562 7.53125 -12.0625 C 5.90625 -12.53125 4.503906 -13.390625 3.328125 -14.640625 C 2.148438 -15.890625 1.5625 -17.644531 1.5625 -19.90625 C 1.5625 -21.757812 2.113281 -23.410156 3.21875 -24.859375 C 4.320312 -26.304688 5.9375 -27.453125 8.0625 -28.296875 C 10.195312 -29.140625 12.75 -29.5625 15.71875 -29.5625 C 17.820312 -29.5625 19.910156 -29.34375 21.984375 -28.90625 C 24.066406 -28.476562 25.804688 -27.875 27.203125 -27.09375 L 24.140625 -20.171875 C 21.566406 -21.597656 18.773438 -22.3125 15.765625 -22.3125 C 14.160156 -22.3125 12.984375 -22.125 12.234375 -21.75 C 11.484375 -21.375 11.109375 -20.882812 11.109375 -20.28125 C 11.109375 -19.59375 11.519531 -19.113281 12.34375 -18.84375 C 13.164062 -18.582031 14.519531 -18.304688 16.40625 -18.015625 C 18.8125 -17.660156 20.800781 -17.25 22.375 -16.78125 C 23.945312 -16.320312 25.3125 -15.472656 26.46875 -14.234375 C 27.632812 -13.003906 28.21875 -11.28125 28.21875 -9.0625 C 28.21875 -7.238281 27.660156 -5.601562 26.546875 -4.15625 C 25.441406 -2.707031 23.804688 -1.570312 21.640625 -0.75 C 19.484375 0.0703125 16.882812 0.484375 13.84375 0.484375 Z M 13.84375 0.484375 "/></g></g></g><g fill="#000000" fill-opacity="1"><g transform="translate(296.413492, 232.758792)"><g><path d="M 13.84375 0.484375 C 11.40625 0.484375 9.003906 0.207031 6.640625 -0.34375 C 4.285156 -0.90625 2.394531 -1.628906 0.96875 -2.515625 L 4.015625 -9.5 C 5.335938 -8.675781 6.910156 -8.019531 8.734375 -7.53125 C 10.566406 -7.050781 12.375 -6.8125 14.15625 -6.8125 C 15.800781 -6.8125 16.972656 -6.976562 17.671875 -7.3125 C 18.367188 -7.65625 18.71875 -8.148438 18.71875 -8.796875 C 18.71875 -9.441406 18.296875 -9.894531 17.453125 -10.15625 C 16.617188 -10.425781 15.289062 -10.6875 13.46875 -10.9375 C 11.144531 -11.226562 9.164062 -11.601562 7.53125 -12.0625 C 5.90625 -12.53125 4.503906 -13.390625 3.328125 -14.640625 C 2.148438 -15.890625 1.5625 -17.644531 1.5625 -19.90625 C 1.5625 -21.757812 2.113281 -23.410156 3.21875 -24.859375 C 4.320312 -26.304688 5.9375 -27.453125 8.0625 -28.296875 C 10.195312 -29.140625 12.75 -29.5625 15.71875 -29.5625 C 17.820312 -29.5625 19.910156 -29.34375 21.984375 -28.90625 C 24.066406 -28.476562 25.804688 -27.875 27.203125 -27.09375 L 24.140625 -20.171875 C 21.566406 -21.597656 18.773438 -22.3125 15.765625 -22.3125 C 14.160156 -22.3125 12.984375 -22.125 12.234375 -21.75 C 11.484375 -21.375 11.109375 -20.882812 11.109375 -20.28125 C 11.109375 -19.59375 11.519531 -19.113281 12.34375 -18.84375 C 13.164062 -18.582031 14.519531 -18.304688 16.40625 -18.015625 C 18.8125 -17.660156 20.800781 -17.25 22.375 -16.78125 C 23.945312 -16.320312 25.3125 -15.472656 26.46875 -14.234375 C 27.632812 -13.003906 28.21875 -11.28125 28.21875 -9.0625 C 28.21875 -7.238281 27.660156 -5.601562 26.546875 -4.15625 C 25.441406 -2.707031 23.804688 -1.570312 21.640625 -0.75 C 19.484375 0.0703125 16.882812 0.484375 13.84375 0.484375 Z M 13.84375 0.484375 "/></g></g></g><g fill="#000000" fill-opacity="1"><g transform="translate(320.287061, 232.758792)"><g><path d="M 7.5625 0.484375 C 5.84375 0.484375 4.394531 -0.0859375 3.21875 -1.234375 C 2.039062 -2.378906 1.453125 -3.828125 1.453125 -5.578125 C 1.453125 -7.367188 2.03125 -8.816406 3.1875 -9.921875 C 4.351562 -11.035156 5.8125 -11.59375 7.5625 -11.59375 C 9.351562 -11.59375 10.816406 -11.035156 11.953125 -9.921875 C 13.097656 -8.816406 13.671875 -7.367188 13.671875 -5.578125 C 13.671875 -3.828125 13.085938 -2.378906 11.921875 -1.234375 C 10.765625 -0.0859375 9.3125 0.484375 7.5625 0.484375 Z M 7.5625 0.484375 "/></g></g></g><g fill="#000000" fill-opacity="1"><g transform="translate(79.882353, 264.890002)"><g><path d="M 1.421875 -7.078125 L 1.25 -7.609375 C 1.03125 -8.285156 0.898438 -8.722656 0.859375 -8.921875 L 0.09375 -8.890625 L 0.09375 -9.5 L 3.390625 -9.5 L 3.390625 -9.046875 C 3.015625 -9.023438 2.75 -8.960938 2.59375 -8.859375 C 2.445312 -8.753906 2.375 -8.585938 2.375 -8.359375 C 2.375 -8.140625 2.421875 -7.875 2.515625 -7.5625 C 2.671875 -6.957031 2.882812 -6.28125 3.15625 -5.53125 C 3.207031 -5.394531 3.265625 -5.234375 3.328125 -5.046875 C 3.390625 -4.867188 3.460938 -4.65625 3.546875 -4.40625 C 3.597656 -4.21875 3.660156 -4.007812 3.734375 -3.78125 C 3.816406 -3.550781 3.878906 -3.390625 3.921875 -3.296875 C 4.097656 -2.804688 4.234375 -2.414062 4.328125 -2.125 L 4.359375 -2.125 C 4.535156 -2.738281 4.71875 -3.335938 4.90625 -3.921875 C 5.226562 -4.972656 5.585938 -6.082031 5.984375 -7.25 C 6.390625 -8.46875 6.632812 -9.222656 6.71875 -9.515625 L 7.140625 -9.515625 C 7.253906 -9.148438 7.441406 -8.570312 7.703125 -7.78125 C 7.960938 -6.988281 8.148438 -6.414062 8.265625 -6.0625 C 8.546875 -5.28125 8.734375 -4.726562 8.828125 -4.40625 C 8.898438 -4.164062 9.019531 -3.800781 9.1875 -3.3125 C 9.363281 -2.78125 9.503906 -2.332031 9.609375 -1.96875 L 9.65625 -1.96875 C 9.875 -2.675781 10.0625 -3.257812 10.21875 -3.71875 C 10.675781 -5.03125 11.050781 -6.160156 11.34375 -7.109375 C 11.4375 -7.441406 11.523438 -7.722656 11.609375 -7.953125 C 11.773438 -8.410156 11.914062 -8.738281 12.03125 -8.9375 L 10.9375 -8.890625 L 10.9375 -9.5 L 13.703125 -9.5 L 13.703125 -9.046875 C 13.367188 -9.003906 13.117188 -8.929688 12.953125 -8.828125 C 12.785156 -8.734375 12.632812 -8.554688 12.5 -8.296875 C 12.375 -8.046875 12.210938 -7.625 12.015625 -7.03125 L 11.328125 -4.984375 C 10.597656 -2.785156 10.015625 -1.078125 9.578125 0.140625 L 9.171875 0.140625 L 6.625 -7.125 L 4.25 0.140625 L 3.859375 0.140625 Z M 1.421875 -7.078125 "/></g></g></g><g fill="#000000" fill-opacity="1"><g transform="translate(93.376538, 264.890002)"><g><path d="M 0.46875 -0.40625 C 0.726562 -0.40625 0.914062 -0.46875 1.03125 -0.59375 C 1.144531 -0.726562 1.210938 -0.898438 1.234375 -1.109375 C 1.265625 -1.316406 1.28125 -1.632812 1.28125 -2.0625 L 1.28125 -8.46875 C 1.28125 -8.8125 1.289062 -9.109375 1.3125 -9.359375 L 0.359375 -9.296875 L 0.359375 -9.875 C 0.898438 -9.875 1.285156 -9.90625 1.515625 -9.96875 C 1.742188 -10.03125 1.921875 -10.117188 2.046875 -10.234375 L 2.4375 -10.234375 L 2.4375 -6.109375 C 2.757812 -6.367188 3.117188 -6.582031 3.515625 -6.75 C 3.910156 -6.914062 4.296875 -7 4.671875 -7 C 5.441406 -7 6.003906 -6.753906 6.359375 -6.265625 C 6.710938 -5.773438 6.894531 -5.003906 6.90625 -3.953125 L 6.921875 -1.4375 C 6.921875 -1.03125 6.898438 -0.722656 6.859375 -0.515625 L 7.71875 -0.5625 L 7.71875 0 L 4.953125 0 L 4.953125 -0.40625 C 5.210938 -0.40625 5.398438 -0.46875 5.515625 -0.59375 C 5.628906 -0.726562 5.695312 -0.894531 5.71875 -1.09375 C 5.738281 -1.300781 5.75 -1.625 5.75 -2.0625 L 5.75 -3.953125 C 5.75 -4.734375 5.625 -5.316406 5.375 -5.703125 C 5.132812 -6.085938 4.753906 -6.28125 4.234375 -6.28125 C 3.898438 -6.28125 3.566406 -6.203125 3.234375 -6.046875 C 2.898438 -5.890625 2.632812 -5.6875 2.4375 -5.4375 L 2.4375 -1.4375 C 2.4375 -1.082031 2.414062 -0.773438 2.375 -0.515625 L 3.234375 -0.5625 L 3.234375 0 L 0.46875 0 Z M 0.46875 -0.40625 "/></g></g></g><g fill="#000000" fill-opacity="1"><g transform="translate(101.500171, 264.890002)"><g><path d="M 3.875 0.21875 C 3.25 0.21875 2.6875 0.0703125 2.1875 -0.21875 C 1.6875 -0.519531 1.289062 -0.941406 1 -1.484375 C 0.707031 -2.035156 0.5625 -2.664062 0.5625 -3.375 C 0.5625 -4.007812 0.707031 -4.601562 1 -5.15625 C 1.289062 -5.71875 1.695312 -6.164062 2.21875 -6.5 C 2.738281 -6.832031 3.328125 -7 3.984375 -7 C 4.503906 -7 4.972656 -6.882812 5.390625 -6.65625 C 5.804688 -6.425781 6.132812 -6.085938 6.375 -5.640625 C 6.613281 -5.203125 6.734375 -4.65625 6.734375 -4 L 1.96875 -3.921875 C 1.957031 -2.835938 2.132812 -1.988281 2.5 -1.375 C 2.863281 -0.769531 3.429688 -0.46875 4.203125 -0.46875 C 4.617188 -0.46875 5.046875 -0.578125 5.484375 -0.796875 C 5.921875 -1.015625 6.257812 -1.28125 6.5 -1.59375 L 6.828125 -1.328125 C 6.484375 -0.804688 6.035156 -0.414062 5.484375 -0.15625 C 4.941406 0.09375 4.40625 0.21875 3.875 0.21875 Z M 5.46875 -4.484375 C 5.46875 -5.023438 5.34375 -5.488281 5.09375 -5.875 C 4.851562 -6.269531 4.488281 -6.46875 4 -6.46875 C 2.875 -6.46875 2.207031 -5.804688 2 -4.484375 Z M 5.46875 -4.484375 "/></g></g></g><g fill="#000000" fill-opacity="1"><g transform="translate(108.850769, 264.890002)"><g><path d="M 0.59375 -0.40625 C 0.851562 -0.40625 1.039062 -0.46875 1.15625 -0.59375 C 1.269531 -0.726562 1.335938 -0.894531 1.359375 -1.09375 C 1.378906 -1.300781 1.390625 -1.625 1.390625 -2.0625 L 1.390625 -5.15625 C 1.390625 -5.53125 1.410156 -5.820312 1.453125 -6.03125 L 0.484375 -6 L 0.484375 -6.546875 L 0.90625 -6.546875 C 1.25 -6.546875 1.5 -6.578125 1.65625 -6.640625 C 1.8125 -6.703125 1.957031 -6.796875 2.09375 -6.921875 L 2.484375 -6.921875 C 2.515625 -6.566406 2.535156 -6.117188 2.546875 -5.578125 C 2.773438 -5.941406 3.097656 -6.269531 3.515625 -6.5625 C 3.941406 -6.851562 4.378906 -7 4.828125 -7 C 5.097656 -7 5.320312 -6.925781 5.5 -6.78125 C 5.6875 -6.632812 5.78125 -6.421875 5.78125 -6.140625 C 5.78125 -5.992188 5.722656 -5.847656 5.609375 -5.703125 C 5.492188 -5.566406 5.332031 -5.5 5.125 -5.5 C 4.925781 -5.5 4.765625 -5.570312 4.640625 -5.71875 C 4.515625 -5.863281 4.460938 -6.039062 4.484375 -6.25 C 4.140625 -6.257812 3.789062 -6.128906 3.4375 -5.859375 C 3.09375 -5.585938 2.800781 -5.226562 2.5625 -4.78125 L 2.578125 -1.4375 C 2.578125 -1.03125 2.554688 -0.722656 2.515625 -0.515625 L 3.375 -0.5625 L 3.375 0 L 0.59375 0 Z M 0.59375 -0.40625 "/></g></g></g><g fill="#000000" fill-opacity="1"><g transform="translate(114.72311, 264.890002)"><g><path d="M 3.875 0.21875 C 3.25 0.21875 2.6875 0.0703125 2.1875 -0.21875 C 1.6875 -0.519531 1.289062 -0.941406 1 -1.484375 C 0.707031 -2.035156 0.5625 -2.664062 0.5625 -3.375 C 0.5625 -4.007812 0.707031 -4.601562 1 -5.15625 C 1.289062 -5.71875 1.695312 -6.164062 2.21875 -6.5 C 2.738281 -6.832031 3.328125 -7 3.984375 -7 C 4.503906 -7 4.972656 -6.882812 5.390625 -6.65625 C 5.804688 -6.425781 6.132812 -6.085938 6.375 -5.640625 C 6.613281 -5.203125 6.734375 -4.65625 6.734375 -4 L 1.96875 -3.921875 C 1.957031 -2.835938 2.132812 -1.988281 2.5 -1.375 C 2.863281 -0.769531 3.429688 -0.46875 4.203125 -0.46875 C 4.617188 -0.46875 5.046875 -0.578125 5.484375 -0.796875 C 5.921875 -1.015625 6.257812 -1.28125 6.5 -1.59375 L 6.828125 -1.328125 C 6.484375 -0.804688 6.035156 -0.414062 5.484375 -0.15625 C 4.941406 0.09375 4.40625 0.21875 3.875 0.21875 Z M 5.46875 -4.484375 C 5.46875 -5.023438 5.34375 -5.488281 5.09375 -5.875 C 4.851562 -6.269531 4.488281 -6.46875 4 -6.46875 C 2.875 -6.46875 2.207031 -5.804688 2 -4.484375 Z M 5.46875 -4.484375 "/></g></g></g><g fill="#000000" fill-opacity="1"><g transform="translate(122.073708, 264.890002)"><g/></g></g><g fill="#000000" fill-opacity="1"><g transform="translate(125.640513, 264.890002)"><g><path d="M 3.921875 0.21875 C 3.492188 0.21875 3.066406 0.15625 2.640625 0.03125 C 2.210938 -0.0820312 1.832031 -0.25 1.5 -0.46875 L 1.578125 0.109375 L 0.875 0.109375 L 0.78125 -2.78125 L 1.3125 -2.78125 C 1.363281 -2 1.628906 -1.398438 2.109375 -0.984375 C 2.597656 -0.566406 3.21875 -0.359375 3.96875 -0.359375 C 4.519531 -0.359375 4.984375 -0.507812 5.359375 -0.8125 C 5.734375 -1.113281 5.921875 -1.523438 5.921875 -2.046875 C 5.921875 -2.429688 5.816406 -2.757812 5.609375 -3.03125 C 5.398438 -3.3125 5.140625 -3.546875 4.828125 -3.734375 C 4.515625 -3.921875 4.085938 -4.132812 3.546875 -4.375 C 2.941406 -4.664062 2.460938 -4.921875 2.109375 -5.140625 C 1.753906 -5.359375 1.445312 -5.644531 1.1875 -6 C 0.9375 -6.351562 0.8125 -6.796875 0.8125 -7.328125 C 0.8125 -7.679688 0.894531 -8.039062 1.0625 -8.40625 C 1.226562 -8.769531 1.515625 -9.078125 1.921875 -9.328125 C 2.335938 -9.578125 2.882812 -9.703125 3.5625 -9.703125 C 3.96875 -9.703125 4.375 -9.648438 4.78125 -9.546875 C 5.195312 -9.453125 5.578125 -9.273438 5.921875 -9.015625 L 5.875 -9.609375 L 6.5625 -9.609375 L 6.5625 -6.625 L 6.078125 -6.625 C 6.035156 -7.332031 5.804688 -7.929688 5.390625 -8.421875 C 4.984375 -8.921875 4.40625 -9.171875 3.65625 -9.171875 C 3.113281 -9.171875 2.6875 -9.019531 2.375 -8.71875 C 2.070312 -8.414062 1.921875 -8.035156 1.921875 -7.578125 C 1.921875 -7.210938 2.023438 -6.898438 2.234375 -6.640625 C 2.441406 -6.378906 2.691406 -6.160156 2.984375 -5.984375 C 3.285156 -5.816406 3.710938 -5.609375 4.265625 -5.359375 C 4.878906 -5.078125 5.375 -4.820312 5.75 -4.59375 C 6.125 -4.375 6.441406 -4.078125 6.703125 -3.703125 C 6.960938 -3.335938 7.09375 -2.890625 7.09375 -2.359375 C 7.09375 -1.847656 6.96875 -1.398438 6.71875 -1.015625 C 6.46875 -0.628906 6.101562 -0.328125 5.625 -0.109375 C 5.144531 0.109375 4.578125 0.21875 3.921875 0.21875 Z M 3.921875 0.21875 "/></g></g></g><g fill="#000000" fill-opacity="1"><g transform="translate(133.330168, 264.890002)"><g><path d="M 2.5 0.21875 C 1.832031 0.21875 1.328125 0.0703125 0.984375 -0.21875 C 0.640625 -0.519531 0.46875 -0.910156 0.46875 -1.390625 C 0.46875 -1.921875 0.675781 -2.363281 1.09375 -2.71875 C 1.507812 -3.082031 2.035156 -3.351562 2.671875 -3.53125 C 3.316406 -3.707031 3.957031 -3.789062 4.59375 -3.78125 L 4.59375 -4.625 C 4.59375 -5.207031 4.503906 -5.664062 4.328125 -6 C 4.160156 -6.332031 3.796875 -6.5 3.234375 -6.5 C 2.960938 -6.5 2.695312 -6.4375 2.4375 -6.3125 C 2.1875 -6.195312 2.003906 -6.023438 1.890625 -5.796875 C 2.003906 -5.660156 2.0625 -5.488281 2.0625 -5.28125 C 2.0625 -5.144531 2.007812 -5.015625 1.90625 -4.890625 C 1.8125 -4.765625 1.671875 -4.703125 1.484375 -4.703125 C 1.285156 -4.703125 1.132812 -4.765625 1.03125 -4.890625 C 0.925781 -5.015625 0.875 -5.175781 0.875 -5.375 C 0.875 -5.664062 0.988281 -5.9375 1.21875 -6.1875 C 1.445312 -6.4375 1.765625 -6.632812 2.171875 -6.78125 C 2.585938 -6.925781 3.046875 -7 3.546875 -7 C 4.304688 -7 4.867188 -6.796875 5.234375 -6.390625 C 5.597656 -5.992188 5.773438 -5.359375 5.765625 -4.484375 L 5.75 -1.4375 C 5.75 -1.144531 5.734375 -0.835938 5.703125 -0.515625 L 6.65625 -0.5625 L 6.65625 0 L 4.71875 0 C 4.6875 -0.132812 4.65625 -0.390625 4.625 -0.765625 C 3.96875 -0.109375 3.257812 0.21875 2.5 0.21875 Z M 2.8125 -0.5625 C 3.15625 -0.5625 3.460938 -0.625 3.734375 -0.75 C 4.015625 -0.882812 4.300781 -1.085938 4.59375 -1.359375 C 4.582031 -1.492188 4.578125 -1.722656 4.578125 -2.046875 L 4.59375 -3.328125 C 3.851562 -3.296875 3.191406 -3.140625 2.609375 -2.859375 C 2.035156 -2.585938 1.75 -2.164062 1.75 -1.59375 C 1.75 -1.257812 1.847656 -1.003906 2.046875 -0.828125 C 2.242188 -0.648438 2.5 -0.5625 2.8125 -0.5625 Z M 2.8125 -0.5625 "/></g></g></g><g fill="#000000" fill-opacity="1"><g transform="translate(140.328155, 264.890002)"><g><path d="M 1.234375 -4.375 C 0.867188 -5.207031 0.679688 -5.835938 0.671875 -6.265625 L 0.078125 -6.21875 L 0.078125 -6.78125 L 2.578125 -6.78125 L 2.578125 -6.375 C 2.179688 -6.375 1.984375 -6.207031 1.984375 -5.875 C 1.984375 -5.625 2.078125 -5.289062 2.265625 -4.875 L 3.3125 -2.484375 C 3.425781 -2.203125 3.5625 -1.867188 3.71875 -1.484375 L 3.734375 -1.484375 C 3.753906 -1.566406 3.789062 -1.664062 3.84375 -1.78125 L 4.046875 -2.359375 L 5.125 -5.328125 C 5.21875 -5.585938 5.351562 -5.898438 5.53125 -6.265625 L 4.671875 -6.21875 L 4.671875 -6.78125 L 6.8125 -6.78125 L 6.8125 -6.375 C 6.625 -6.375 6.457031 -6.304688 6.3125 -6.171875 C 6.175781 -6.046875 6.050781 -5.863281 5.9375 -5.625 C 5.832031 -5.394531 5.6875 -5.035156 5.5 -4.546875 L 3.71875 0.046875 L 3.171875 0.046875 Z M 1.234375 -4.375 "/></g></g></g><g fill="#000000" fill-opacity="1"><g transform="translate(147.176964, 264.890002)"><g><path d="M 1.9375 -8.265625 C 1.75 -8.265625 1.582031 -8.34375 1.4375 -8.5 C 1.289062 -8.65625 1.21875 -8.84375 1.21875 -9.0625 C 1.21875 -9.28125 1.289062 -9.46875 1.4375 -9.625 C 1.59375 -9.789062 1.765625 -9.875 1.953125 -9.875 C 2.160156 -9.875 2.332031 -9.796875 2.46875 -9.640625 C 2.613281 -9.484375 2.6875 -9.289062 2.6875 -9.0625 C 2.6875 -8.84375 2.609375 -8.65625 2.453125 -8.5 C 2.304688 -8.34375 2.132812 -8.265625 1.9375 -8.265625 Z M 0.59375 -0.40625 C 0.851562 -0.40625 1.039062 -0.46875 1.15625 -0.59375 C 1.269531 -0.726562 1.335938 -0.894531 1.359375 -1.09375 C 1.378906 -1.300781 1.390625 -1.625 1.390625 -2.0625 L 1.390625 -5.15625 C 1.390625 -5.414062 1.410156 -5.707031 1.453125 -6.03125 L 0.484375 -5.984375 L 0.484375 -6.546875 C 1.015625 -6.546875 1.394531 -6.578125 1.625 -6.640625 C 1.863281 -6.703125 2.046875 -6.796875 2.171875 -6.921875 L 2.5625 -6.921875 L 2.5625 -1.4375 C 2.5625 -1.03125 2.546875 -0.722656 2.515625 -0.515625 L 3.359375 -0.5625 L 3.359375 0 L 0.59375 0 Z M 0.59375 -0.40625 "/></g></g></g><g fill="#000000" fill-opacity="1"><g transform="translate(150.98788, 264.890002)"><g><path d="M 0.59375 -0.40625 C 0.851562 -0.40625 1.039062 -0.46875 1.15625 -0.59375 C 1.269531 -0.726562 1.335938 -0.894531 1.359375 -1.09375 C 1.378906 -1.289062 1.390625 -1.613281 1.390625 -2.0625 L 1.40625 -5.15625 C 1.40625 -5.53125 1.425781 -5.820312 1.46875 -6.03125 L 0.5 -5.984375 L 0.5 -6.546875 C 1.03125 -6.546875 1.394531 -6.578125 1.59375 -6.640625 C 1.800781 -6.703125 1.972656 -6.796875 2.109375 -6.921875 L 2.5 -6.921875 C 2.507812 -6.742188 2.523438 -6.46875 2.546875 -6.09375 C 2.859375 -6.363281 3.207031 -6.582031 3.59375 -6.75 C 3.988281 -6.914062 4.378906 -7 4.765625 -7 C 5.546875 -7 6.117188 -6.75 6.484375 -6.25 C 6.847656 -5.757812 7.03125 -4.992188 7.03125 -3.953125 L 7.03125 -1.4375 C 7.03125 -1.03125 7.007812 -0.722656 6.96875 -0.515625 L 7.828125 -0.5625 L 7.828125 0 L 5.0625 0 L 5.0625 -0.40625 C 5.320312 -0.40625 5.507812 -0.46875 5.625 -0.59375 C 5.738281 -0.726562 5.804688 -0.894531 5.828125 -1.09375 C 5.847656 -1.300781 5.859375 -1.625 5.859375 -2.0625 L 5.859375 -3.953125 C 5.847656 -4.734375 5.71875 -5.320312 5.46875 -5.71875 C 5.226562 -6.113281 4.847656 -6.3125 4.328125 -6.3125 C 4.003906 -6.3125 3.679688 -6.226562 3.359375 -6.0625 C 3.035156 -5.894531 2.769531 -5.679688 2.5625 -5.421875 C 2.570312 -5.328125 2.578125 -5.148438 2.578125 -4.890625 L 2.5625 -1.4375 C 2.5625 -1.03125 2.546875 -0.722656 2.515625 -0.515625 L 3.359375 -0.5625 L 3.359375 0 L 0.59375 0 Z M 0.59375 -0.40625 "/></g></g></g><g fill="#000000" fill-opacity="1"><g transform="translate(159.220013, 264.890002)"><g><path d="M 3.859375 3.671875 C 3.085938 3.671875 2.445312 3.582031 1.9375 3.40625 C 1.4375 3.238281 1.066406 3.015625 0.828125 2.734375 C 0.585938 2.453125 0.46875 2.15625 0.46875 1.84375 C 0.46875 1.46875 0.59375 1.132812 0.84375 0.84375 C 1.101562 0.5625 1.394531 0.351562 1.71875 0.21875 C 1.414062 0.113281 1.179688 -0.0195312 1.015625 -0.1875 C 0.859375 -0.363281 0.78125 -0.585938 0.78125 -0.859375 C 0.78125 -1.179688 0.910156 -1.476562 1.171875 -1.75 C 1.429688 -2.019531 1.753906 -2.1875 2.140625 -2.25 C 1.710938 -2.445312 1.375 -2.722656 1.125 -3.078125 C 0.882812 -3.441406 0.765625 -3.851562 0.765625 -4.3125 C 0.765625 -4.832031 0.898438 -5.296875 1.171875 -5.703125 C 1.453125 -6.109375 1.8125 -6.425781 2.25 -6.65625 C 2.695312 -6.882812 3.160156 -7 3.640625 -7 C 4.253906 -7 4.828125 -6.832031 5.359375 -6.5 C 5.492188 -6.882812 5.710938 -7.195312 6.015625 -7.4375 C 6.316406 -7.6875 6.644531 -7.8125 7 -7.8125 C 7.226562 -7.8125 7.40625 -7.75 7.53125 -7.625 C 7.65625 -7.507812 7.71875 -7.347656 7.71875 -7.140625 C 7.71875 -7.003906 7.671875 -6.875 7.578125 -6.75 C 7.484375 -6.632812 7.34375 -6.578125 7.15625 -6.578125 C 7.007812 -6.578125 6.878906 -6.617188 6.765625 -6.703125 C 6.660156 -6.796875 6.59375 -6.910156 6.5625 -7.046875 C 6.34375 -7.023438 6.171875 -6.929688 6.046875 -6.765625 C 5.921875 -6.597656 5.832031 -6.394531 5.78125 -6.15625 C 6 -5.945312 6.171875 -5.703125 6.296875 -5.421875 C 6.429688 -5.140625 6.5 -4.847656 6.5 -4.546875 C 6.5 -4.046875 6.363281 -3.597656 6.09375 -3.203125 C 5.832031 -2.804688 5.484375 -2.492188 5.046875 -2.265625 C 4.609375 -2.035156 4.140625 -1.921875 3.640625 -1.921875 C 3.515625 -1.921875 3.363281 -1.929688 3.1875 -1.953125 C 3.050781 -1.984375 2.894531 -2 2.71875 -2 C 2.425781 -2 2.175781 -1.929688 1.96875 -1.796875 C 1.769531 -1.660156 1.671875 -1.5 1.671875 -1.3125 C 1.671875 -1.050781 1.832031 -0.878906 2.15625 -0.796875 C 2.488281 -0.710938 3.054688 -0.65625 3.859375 -0.625 C 4.960938 -0.570312 5.789062 -0.394531 6.34375 -0.09375 C 6.90625 0.207031 7.1875 0.707031 7.1875 1.40625 C 7.1875 1.875 7.023438 2.28125 6.703125 2.625 C 6.378906 2.96875 5.960938 3.226562 5.453125 3.40625 C 4.941406 3.582031 4.410156 3.671875 3.859375 3.671875 Z M 3.671875 -2.421875 C 4.160156 -2.421875 4.535156 -2.585938 4.796875 -2.921875 C 5.054688 -3.265625 5.1875 -3.710938 5.1875 -4.265625 C 5.1875 -4.898438 5.046875 -5.4375 4.765625 -5.875 C 4.492188 -6.3125 4.109375 -6.53125 3.609375 -6.53125 C 3.128906 -6.53125 2.753906 -6.347656 2.484375 -5.984375 C 2.210938 -5.628906 2.078125 -5.171875 2.078125 -4.609375 C 2.078125 -3.953125 2.21875 -3.421875 2.5 -3.015625 C 2.78125 -2.617188 3.171875 -2.421875 3.671875 -2.421875 Z M 3.859375 3.140625 C 4.347656 3.140625 4.78125 3.070312 5.15625 2.9375 C 5.53125 2.8125 5.816406 2.640625 6.015625 2.421875 C 6.210938 2.203125 6.3125 1.957031 6.3125 1.6875 C 6.3125 1.226562 6.09375 0.910156 5.65625 0.734375 C 5.21875 0.566406 4.570312 0.472656 3.71875 0.453125 C 3.144531 0.429688 2.675781 0.394531 2.3125 0.34375 C 2.070312 0.5 1.882812 0.691406 1.75 0.921875 C 1.613281 1.160156 1.546875 1.414062 1.546875 1.6875 C 1.546875 2.125 1.753906 2.472656 2.171875 2.734375 C 2.597656 3.003906 3.160156 3.140625 3.859375 3.140625 Z M 3.859375 3.140625 "/></g></g></g><g fill="#000000" fill-opacity="1"><g transform="translate(166.719802, 264.890002)"><g><path d="M 3.375 0.21875 C 2.945312 0.21875 2.554688 0.160156 2.203125 0.046875 C 1.859375 -0.0664062 1.554688 -0.207031 1.296875 -0.375 L 1.359375 0.09375 L 0.78125 0.09375 L 0.703125 -2.234375 L 1.125 -2.234375 C 1.144531 -1.867188 1.242188 -1.539062 1.421875 -1.25 C 1.609375 -0.957031 1.851562 -0.726562 2.15625 -0.5625 C 2.46875 -0.394531 2.796875 -0.3125 3.140625 -0.3125 C 3.523438 -0.3125 3.867188 -0.40625 4.171875 -0.59375 C 4.472656 -0.78125 4.625 -1.046875 4.625 -1.390625 C 4.625 -1.640625 4.546875 -1.847656 4.390625 -2.015625 C 4.242188 -2.191406 4.0625 -2.335938 3.84375 -2.453125 C 3.625 -2.566406 3.316406 -2.695312 2.921875 -2.84375 C 2.441406 -3.03125 2.054688 -3.203125 1.765625 -3.359375 C 1.472656 -3.515625 1.222656 -3.726562 1.015625 -4 C 0.804688 -4.269531 0.703125 -4.613281 0.703125 -5.03125 C 0.703125 -5.332031 0.773438 -5.628906 0.921875 -5.921875 C 1.066406 -6.222656 1.3125 -6.476562 1.65625 -6.6875 C 2 -6.894531 2.457031 -7 3.03125 -7 C 3.300781 -7 3.582031 -6.953125 3.875 -6.859375 C 4.175781 -6.773438 4.453125 -6.628906 4.703125 -6.421875 L 4.671875 -6.9375 L 5.25 -6.9375 L 5.25 -4.5625 L 4.8125 -4.5625 C 4.789062 -5.082031 4.628906 -5.535156 4.328125 -5.921875 C 4.035156 -6.304688 3.625 -6.5 3.09375 -6.5 C 2.6875 -6.5 2.363281 -6.394531 2.125 -6.1875 C 1.882812 -5.988281 1.765625 -5.75 1.765625 -5.46875 C 1.765625 -5.207031 1.84375 -4.984375 2 -4.796875 C 2.15625 -4.617188 2.347656 -4.46875 2.578125 -4.34375 C 2.816406 -4.21875 3.140625 -4.078125 3.546875 -3.921875 C 4.015625 -3.734375 4.390625 -3.554688 4.671875 -3.390625 C 4.960938 -3.222656 5.207031 -3.003906 5.40625 -2.734375 C 5.613281 -2.472656 5.71875 -2.15625 5.71875 -1.78125 C 5.71875 -1.34375 5.609375 -0.972656 5.390625 -0.671875 C 5.171875 -0.378906 4.878906 -0.15625 4.515625 0 C 4.160156 0.144531 3.78125 0.21875 3.375 0.21875 Z M 3.375 0.21875 "/></g></g></g><g fill="#000000" fill-opacity="1"><g transform="translate(176.565816, 264.890002)"><g><path d="M 5.09375 -1.5625 C 4.40625 -3.09375 3.867188 -4.296875 3.484375 -5.171875 C 3.109375 -6.054688 2.742188 -6.988281 2.390625 -7.96875 L 2.375 -7.359375 C 2.289062 -4.710938 2.238281 -2.820312 2.21875 -1.6875 C 2.21875 -1.550781 2.210938 -1.453125 2.203125 -1.390625 C 2.203125 -1.085938 2.191406 -0.804688 2.171875 -0.546875 L 3.1875 -0.59375 L 3.1875 0 L 0.59375 0 L 0.59375 -0.453125 C 0.976562 -0.460938 1.222656 -0.566406 1.328125 -0.765625 C 1.441406 -0.972656 1.507812 -1.28125 1.53125 -1.6875 L 1.828125 -8.953125 L 0.859375 -8.90625 L 0.859375 -9.5 L 2.921875 -9.5 L 4.78125 -5.234375 C 5.445312 -3.660156 5.957031 -2.46875 6.3125 -1.65625 L 6.34375 -1.65625 C 6.457031 -1.925781 6.6875 -2.507812 7.03125 -3.40625 C 7.375 -4.269531 7.769531 -5.222656 8.21875 -6.265625 C 8.726562 -7.472656 9.171875 -8.550781 9.546875 -9.5 L 11.5625 -9.5 L 11.5625 -9.046875 C 11.226562 -9.054688 10.984375 -8.96875 10.828125 -8.78125 C 10.679688 -8.59375 10.609375 -8.28125 10.609375 -7.84375 L 10.625 -7.5625 L 10.96875 -1.390625 C 10.988281 -1.179688 11 -0.90625 11 -0.5625 L 11.984375 -0.59375 L 11.984375 0 L 8.953125 0 L 8.953125 -0.453125 C 9.304688 -0.460938 9.546875 -0.5625 9.671875 -0.75 C 9.796875 -0.945312 9.859375 -1.253906 9.859375 -1.671875 C 9.859375 -1.835938 9.851562 -1.96875 9.84375 -2.0625 L 9.5 -7.84375 C 9.476562 -7.789062 9.453125 -7.726562 9.421875 -7.65625 C 9.390625 -7.582031 9.351562 -7.5 9.3125 -7.40625 L 6.265625 0.140625 L 5.859375 0.140625 Z M 5.09375 -1.5625 "/></g></g></g><g fill="#000000" fill-opacity="1"><g transform="translate(189.015733, 264.890002)"><g><path d="M 3.875 0.21875 C 3.25 0.21875 2.6875 0.0703125 2.1875 -0.21875 C 1.6875 -0.519531 1.289062 -0.941406 1 -1.484375 C 0.707031 -2.035156 0.5625 -2.664062 0.5625 -3.375 C 0.5625 -4.007812 0.707031 -4.601562 1 -5.15625 C 1.289062 -5.71875 1.695312 -6.164062 2.21875 -6.5 C 2.738281 -6.832031 3.328125 -7 3.984375 -7 C 4.503906 -7 4.972656 -6.882812 5.390625 -6.65625 C 5.804688 -6.425781 6.132812 -6.085938 6.375 -5.640625 C 6.613281 -5.203125 6.734375 -4.65625 6.734375 -4 L 1.96875 -3.921875 C 1.957031 -2.835938 2.132812 -1.988281 2.5 -1.375 C 2.863281 -0.769531 3.429688 -0.46875 4.203125 -0.46875 C 4.617188 -0.46875 5.046875 -0.578125 5.484375 -0.796875 C 5.921875 -1.015625 6.257812 -1.28125 6.5 -1.59375 L 6.828125 -1.328125 C 6.484375 -0.804688 6.035156 -0.414062 5.484375 -0.15625 C 4.941406 0.09375 4.40625 0.21875 3.875 0.21875 Z M 5.46875 -4.484375 C 5.46875 -5.023438 5.34375 -5.488281 5.09375 -5.875 C 4.851562 -6.269531 4.488281 -6.46875 4 -6.46875 C 2.875 -6.46875 2.207031 -5.804688 2 -4.484375 Z M 5.46875 -4.484375 "/></g></g></g><g fill="#000000" fill-opacity="1"><g transform="translate(196.366332, 264.890002)"><g><path d="M 3.875 0.21875 C 3.25 0.21875 2.6875 0.0703125 2.1875 -0.21875 C 1.6875 -0.519531 1.289062 -0.941406 1 -1.484375 C 0.707031 -2.035156 0.5625 -2.664062 0.5625 -3.375 C 0.5625 -4.007812 0.707031 -4.601562 1 -5.15625 C 1.289062 -5.71875 1.695312 -6.164062 2.21875 -6.5 C 2.738281 -6.832031 3.328125 -7 3.984375 -7 C 4.503906 -7 4.972656 -6.882812 5.390625 -6.65625 C 5.804688 -6.425781 6.132812 -6.085938 6.375 -5.640625 C 6.613281 -5.203125 6.734375 -4.65625 6.734375 -4 L 1.96875 -3.921875 C 1.957031 -2.835938 2.132812 -1.988281 2.5 -1.375 C 2.863281 -0.769531 3.429688 -0.46875 4.203125 -0.46875 C 4.617188 -0.46875 5.046875 -0.578125 5.484375 -0.796875 C 5.921875 -1.015625 6.257812 -1.28125 6.5 -1.59375 L 6.828125 -1.328125 C 6.484375 -0.804688 6.035156 -0.414062 5.484375 -0.15625 C 4.941406 0.09375 4.40625 0.21875 3.875 0.21875 Z M 5.46875 -4.484375 C 5.46875 -5.023438 5.34375 -5.488281 5.09375 -5.875 C 4.851562 -6.269531 4.488281 -6.46875 4 -6.46875 C 2.875 -6.46875 2.207031 -5.804688 2 -4.484375 Z M 5.46875 -4.484375 "/></g></g></g><g fill="#000000" fill-opacity="1"><g transform="translate(203.71693, 264.890002)"><g><path d="M 3.140625 0.21875 C 1.898438 0.21875 1.285156 -0.613281 1.296875 -2.28125 L 1.328125 -6.21875 L 0.28125 -6.203125 L 0.28125 -6.78125 C 0.71875 -6.789062 1.085938 -6.988281 1.390625 -7.375 C 1.691406 -7.757812 1.914062 -8.195312 2.0625 -8.6875 L 2.515625 -8.6875 L 2.515625 -6.78125 L 4.796875 -6.78125 L 4.796875 -6.25 L 2.515625 -6.21875 C 2.515625 -4.84375 2.507812 -3.882812 2.5 -3.34375 C 2.5 -2.8125 2.5 -2.515625 2.5 -2.453125 C 2.5 -1.804688 2.570312 -1.328125 2.71875 -1.015625 C 2.875 -0.710938 3.144531 -0.5625 3.53125 -0.5625 C 3.757812 -0.5625 3.988281 -0.628906 4.21875 -0.765625 C 4.457031 -0.910156 4.660156 -1.113281 4.828125 -1.375 L 5.1875 -1.078125 C 4.84375 -0.546875 4.5 -0.195312 4.15625 -0.03125 C 3.8125 0.132812 3.472656 0.21875 3.140625 0.21875 Z M 3.140625 0.21875 "/></g></g></g><g fill="#000000" fill-opacity="1"><g transform="translate(208.965426, 264.890002)"><g><path d="M 0.671875 -6.78125 C 0.828125 -6.976562 0.972656 -7.257812 1.109375 -7.625 C 1.242188 -7.988281 1.3125 -8.34375 1.3125 -8.6875 C 1.3125 -8.800781 1.304688 -8.882812 1.296875 -8.9375 C 1.179688 -8.882812 1.066406 -8.859375 0.953125 -8.859375 C 0.773438 -8.859375 0.625 -8.921875 0.5 -9.046875 C 0.382812 -9.171875 0.328125 -9.328125 0.328125 -9.515625 C 0.328125 -9.765625 0.398438 -9.957031 0.546875 -10.09375 C 0.691406 -10.238281 0.867188 -10.3125 1.078125 -10.3125 C 1.378906 -10.3125 1.613281 -10.191406 1.78125 -9.953125 C 1.957031 -9.722656 2.046875 -9.429688 2.046875 -9.078125 C 2.046875 -8.703125 1.945312 -8.25 1.75 -7.71875 C 1.550781 -7.195312 1.3125 -6.796875 1.03125 -6.515625 Z M 0.671875 -6.78125 "/></g></g></g><g fill="#000000" fill-opacity="1"><g transform="translate(211.325219, 264.890002)"><g><path d="M 3.375 0.21875 C 2.945312 0.21875 2.554688 0.160156 2.203125 0.046875 C 1.859375 -0.0664062 1.554688 -0.207031 1.296875 -0.375 L 1.359375 0.09375 L 0.78125 0.09375 L 0.703125 -2.234375 L 1.125 -2.234375 C 1.144531 -1.867188 1.242188 -1.539062 1.421875 -1.25 C 1.609375 -0.957031 1.851562 -0.726562 2.15625 -0.5625 C 2.46875 -0.394531 2.796875 -0.3125 3.140625 -0.3125 C 3.523438 -0.3125 3.867188 -0.40625 4.171875 -0.59375 C 4.472656 -0.78125 4.625 -1.046875 4.625 -1.390625 C 4.625 -1.640625 4.546875 -1.847656 4.390625 -2.015625 C 4.242188 -2.191406 4.0625 -2.335938 3.84375 -2.453125 C 3.625 -2.566406 3.316406 -2.695312 2.921875 -2.84375 C 2.441406 -3.03125 2.054688 -3.203125 1.765625 -3.359375 C 1.472656 -3.515625 1.222656 -3.726562 1.015625 -4 C 0.804688 -4.269531 0.703125 -4.613281 0.703125 -5.03125 C 0.703125 -5.332031 0.773438 -5.628906 0.921875 -5.921875 C 1.066406 -6.222656 1.3125 -6.476562 1.65625 -6.6875 C 2 -6.894531 2.457031 -7 3.03125 -7 C 3.300781 -7 3.582031 -6.953125 3.875 -6.859375 C 4.175781 -6.773438 4.453125 -6.628906 4.703125 -6.421875 L 4.671875 -6.9375 L 5.25 -6.9375 L 5.25 -4.5625 L 4.8125 -4.5625 C 4.789062 -5.082031 4.628906 -5.535156 4.328125 -5.921875 C 4.035156 -6.304688 3.625 -6.5 3.09375 -6.5 C 2.6875 -6.5 2.363281 -6.394531 2.125 -6.1875 C 1.882812 -5.988281 1.765625 -5.75 1.765625 -5.46875 C 1.765625 -5.207031 1.84375 -4.984375 2 -4.796875 C 2.15625 -4.617188 2.347656 -4.46875 2.578125 -4.34375 C 2.816406 -4.21875 3.140625 -4.078125 3.546875 -3.921875 C 4.015625 -3.734375 4.390625 -3.554688 4.671875 -3.390625 C 4.960938 -3.222656 5.207031 -3.003906 5.40625 -2.734375 C 5.613281 -2.472656 5.71875 -2.15625 5.71875 -1.78125 C 5.71875 -1.34375 5.609375 -0.972656 5.390625 -0.671875 C 5.171875 -0.378906 4.878906 -0.15625 4.515625 0 C 4.160156 0.144531 3.78125 0.21875 3.375 0.21875 Z M 3.375 0.21875 "/></g></g></g><g fill="#000000" fill-opacity="1"><g transform="translate(217.604428, 264.890002)"><g/></g></g><g fill="#000000" fill-opacity="1"><g transform="translate(221.171233, 264.890002)"><g><path d="M 0.75 -0.453125 C 1.0625 -0.460938 1.285156 -0.535156 1.421875 -0.671875 C 1.554688 -0.804688 1.632812 -0.960938 1.65625 -1.140625 C 1.675781 -1.328125 1.6875 -1.648438 1.6875 -2.109375 L 1.6875 -7.96875 C 1.6875 -8.351562 1.695312 -8.679688 1.71875 -8.953125 L 0.75 -8.890625 L 0.75 -9.5 L 3.796875 -9.5 L 3.796875 -9.046875 C 3.484375 -9.035156 3.257812 -8.960938 3.125 -8.828125 C 2.988281 -8.691406 2.910156 -8.53125 2.890625 -8.34375 C 2.867188 -8.15625 2.859375 -7.832031 2.859375 -7.375 L 2.859375 -1.609375 C 2.859375 -1.128906 2.847656 -0.773438 2.828125 -0.546875 L 3.796875 -0.59375 L 3.796875 0 L 0.75 0 Z M 0.75 -0.453125 "/></g></g></g><g fill="#000000" fill-opacity="1"><g transform="translate(225.714507, 264.890002)"><g><path d="M 0.59375 -0.40625 C 0.851562 -0.40625 1.039062 -0.46875 1.15625 -0.59375 C 1.269531 -0.726562 1.335938 -0.894531 1.359375 -1.09375 C 1.378906 -1.289062 1.390625 -1.613281 1.390625 -2.0625 L 1.40625 -5.15625 C 1.40625 -5.53125 1.425781 -5.820312 1.46875 -6.03125 L 0.5 -5.984375 L 0.5 -6.546875 C 1.03125 -6.546875 1.394531 -6.578125 1.59375 -6.640625 C 1.800781 -6.703125 1.972656 -6.796875 2.109375 -6.921875 L 2.5 -6.921875 C 2.507812 -6.742188 2.523438 -6.46875 2.546875 -6.09375 C 2.859375 -6.363281 3.207031 -6.582031 3.59375 -6.75 C 3.988281 -6.914062 4.378906 -7 4.765625 -7 C 5.546875 -7 6.117188 -6.75 6.484375 -6.25 C 6.847656 -5.757812 7.03125 -4.992188 7.03125 -3.953125 L 7.03125 -1.4375 C 7.03125 -1.03125 7.007812 -0.722656 6.96875 -0.515625 L 7.828125 -0.5625 L 7.828125 0 L 5.0625 0 L 5.0625 -0.40625 C 5.320312 -0.40625 5.507812 -0.46875 5.625 -0.59375 C 5.738281 -0.726562 5.804688 -0.894531 5.828125 -1.09375 C 5.847656 -1.300781 5.859375 -1.625 5.859375 -2.0625 L 5.859375 -3.953125 C 5.847656 -4.734375 5.71875 -5.320312 5.46875 -5.71875 C 5.226562 -6.113281 4.847656 -6.3125 4.328125 -6.3125 C 4.003906 -6.3125 3.679688 -6.226562 3.359375 -6.0625 C 3.035156 -5.894531 2.769531 -5.679688 2.5625 -5.421875 C 2.570312 -5.328125 2.578125 -5.148438 2.578125 -4.890625 L 2.5625 -1.4375 C 2.5625 -1.03125 2.546875 -0.722656 2.515625 -0.515625 L 3.359375 -0.5625 L 3.359375 0 L 0.59375 0 Z M 0.59375 -0.40625 "/></g></g></g><g fill="#000000" fill-opacity="1"><g transform="translate(233.94664, 264.890002)"><g><path d="M 0.59375 -0.40625 C 0.851562 -0.40625 1.039062 -0.46875 1.15625 -0.59375 C 1.269531 -0.726562 1.335938 -0.894531 1.359375 -1.09375 C 1.378906 -1.289062 1.390625 -1.613281 1.390625 -2.0625 L 1.40625 -5.15625 C 1.40625 -5.53125 1.425781 -5.820312 1.46875 -6.03125 L 0.5 -5.984375 L 0.5 -6.546875 C 1.03125 -6.546875 1.394531 -6.578125 1.59375 -6.640625 C 1.800781 -6.703125 1.972656 -6.796875 2.109375 -6.921875 L 2.5 -6.921875 C 2.507812 -6.742188 2.523438 -6.46875 2.546875 -6.09375 C 2.859375 -6.363281 3.207031 -6.582031 3.59375 -6.75 C 3.988281 -6.914062 4.378906 -7 4.765625 -7 C 5.546875 -7 6.117188 -6.75 6.484375 -6.25 C 6.847656 -5.757812 7.03125 -4.992188 7.03125 -3.953125 L 7.03125 -1.4375 C 7.03125 -1.03125 7.007812 -0.722656 6.96875 -0.515625 L 7.828125 -0.5625 L 7.828125 0 L 5.0625 0 L 5.0625 -0.40625 C 5.320312 -0.40625 5.507812 -0.46875 5.625 -0.59375 C 5.738281 -0.726562 5.804688 -0.894531 5.828125 -1.09375 C 5.847656 -1.300781 5.859375 -1.625 5.859375 -2.0625 L 5.859375 -3.953125 C 5.847656 -4.734375 5.71875 -5.320312 5.46875 -5.71875 C 5.226562 -6.113281 4.847656 -6.3125 4.328125 -6.3125 C 4.003906 -6.3125 3.679688 -6.226562 3.359375 -6.0625 C 3.035156 -5.894531 2.769531 -5.679688 2.5625 -5.421875 C 2.570312 -5.328125 2.578125 -5.148438 2.578125 -4.890625 L 2.5625 -1.4375 C 2.5625 -1.03125 2.546875 -0.722656 2.515625 -0.515625 L 3.359375 -0.5625 L 3.359375 0 L 0.59375 0 Z M 0.59375 -0.40625 "/></g></g></g><g fill="#000000" fill-opacity="1"><g transform="translate(242.178774, 264.890002)"><g><path d="M 3.953125 0.21875 C 3.335938 0.21875 2.769531 0.0703125 2.25 -0.21875 C 1.726562 -0.519531 1.316406 -0.929688 1.015625 -1.453125 C 0.710938 -1.972656 0.5625 -2.566406 0.5625 -3.234375 C 0.5625 -3.929688 0.707031 -4.566406 1 -5.140625 C 1.300781 -5.722656 1.710938 -6.175781 2.234375 -6.5 C 2.753906 -6.832031 3.328125 -7 3.953125 -7 C 4.578125 -7 5.148438 -6.847656 5.671875 -6.546875 C 6.203125 -6.242188 6.617188 -5.828125 6.921875 -5.296875 C 7.222656 -4.773438 7.375 -4.191406 7.375 -3.546875 C 7.375 -2.859375 7.222656 -2.222656 6.921875 -1.640625 C 6.617188 -1.066406 6.207031 -0.613281 5.6875 -0.28125 C 5.164062 0.0507812 4.585938 0.21875 3.953125 0.21875 Z M 4.0625 -0.328125 C 4.726562 -0.328125 5.21875 -0.597656 5.53125 -1.140625 C 5.84375 -1.679688 6 -2.351562 6 -3.15625 C 6 -4.070312 5.828125 -4.851562 5.484375 -5.5 C 5.148438 -6.15625 4.640625 -6.484375 3.953125 -6.484375 C 3.285156 -6.484375 2.78125 -6.207031 2.4375 -5.65625 C 2.101562 -5.101562 1.9375 -4.425781 1.9375 -3.625 C 1.9375 -3.039062 2.015625 -2.5 2.171875 -2 C 2.335938 -1.5 2.578125 -1.09375 2.890625 -0.78125 C 3.210938 -0.476562 3.601562 -0.328125 4.0625 -0.328125 Z M 4.0625 -0.328125 "/></g></g></g><g fill="#000000" fill-opacity="1"><g transform="translate(250.11254, 264.890002)"><g><path d="M 1.234375 -4.375 C 0.867188 -5.207031 0.679688 -5.835938 0.671875 -6.265625 L 0.078125 -6.21875 L 0.078125 -6.78125 L 2.578125 -6.78125 L 2.578125 -6.375 C 2.179688 -6.375 1.984375 -6.207031 1.984375 -5.875 C 1.984375 -5.625 2.078125 -5.289062 2.265625 -4.875 L 3.3125 -2.484375 C 3.425781 -2.203125 3.5625 -1.867188 3.71875 -1.484375 L 3.734375 -1.484375 C 3.753906 -1.566406 3.789062 -1.664062 3.84375 -1.78125 L 4.046875 -2.359375 L 5.125 -5.328125 C 5.21875 -5.585938 5.351562 -5.898438 5.53125 -6.265625 L 4.671875 -6.21875 L 4.671875 -6.78125 L 6.8125 -6.78125 L 6.8125 -6.375 C 6.625 -6.375 6.457031 -6.304688 6.3125 -6.171875 C 6.175781 -6.046875 6.050781 -5.863281 5.9375 -5.625 C 5.832031 -5.394531 5.6875 -5.035156 5.5 -4.546875 L 3.71875 0.046875 L 3.171875 0.046875 Z M 1.234375 -4.375 "/></g></g></g><g fill="#000000" fill-opacity="1"><g transform="translate(256.961349, 264.890002)"><g><path d="M 2.5 0.21875 C 1.832031 0.21875 1.328125 0.0703125 0.984375 -0.21875 C 0.640625 -0.519531 0.46875 -0.910156 0.46875 -1.390625 C 0.46875 -1.921875 0.675781 -2.363281 1.09375 -2.71875 C 1.507812 -3.082031 2.035156 -3.351562 2.671875 -3.53125 C 3.316406 -3.707031 3.957031 -3.789062 4.59375 -3.78125 L 4.59375 -4.625 C 4.59375 -5.207031 4.503906 -5.664062 4.328125 -6 C 4.160156 -6.332031 3.796875 -6.5 3.234375 -6.5 C 2.960938 -6.5 2.695312 -6.4375 2.4375 -6.3125 C 2.1875 -6.195312 2.003906 -6.023438 1.890625 -5.796875 C 2.003906 -5.660156 2.0625 -5.488281 2.0625 -5.28125 C 2.0625 -5.144531 2.007812 -5.015625 1.90625 -4.890625 C 1.8125 -4.765625 1.671875 -4.703125 1.484375 -4.703125 C 1.285156 -4.703125 1.132812 -4.765625 1.03125 -4.890625 C 0.925781 -5.015625 0.875 -5.175781 0.875 -5.375 C 0.875 -5.664062 0.988281 -5.9375 1.21875 -6.1875 C 1.445312 -6.4375 1.765625 -6.632812 2.171875 -6.78125 C 2.585938 -6.925781 3.046875 -7 3.546875 -7 C 4.304688 -7 4.867188 -6.796875 5.234375 -6.390625 C 5.597656 -5.992188 5.773438 -5.359375 5.765625 -4.484375 L 5.75 -1.4375 C 5.75 -1.144531 5.734375 -0.835938 5.703125 -0.515625 L 6.65625 -0.5625 L 6.65625 0 L 4.71875 0 C 4.6875 -0.132812 4.65625 -0.390625 4.625 -0.765625 C 3.96875 -0.109375 3.257812 0.21875 2.5 0.21875 Z M 2.8125 -0.5625 C 3.15625 -0.5625 3.460938 -0.625 3.734375 -0.75 C 4.015625 -0.882812 4.300781 -1.085938 4.59375 -1.359375 C 4.582031 -1.492188 4.578125 -1.722656 4.578125 -2.046875 L 4.59375 -3.328125 C 3.851562 -3.296875 3.191406 -3.140625 2.609375 -2.859375 C 2.035156 -2.585938 1.75 -2.164062 1.75 -1.59375 C 1.75 -1.257812 1.847656 -1.003906 2.046875 -0.828125 C 2.242188 -0.648438 2.5 -0.5625 2.8125 -0.5625 Z M 2.8125 -0.5625 "/></g></g></g><g fill="#000000" fill-opacity="1"><g transform="translate(263.959336, 264.890002)"><g><path d="M 3.140625 0.21875 C 1.898438 0.21875 1.285156 -0.613281 1.296875 -2.28125 L 1.328125 -6.21875 L 0.28125 -6.203125 L 0.28125 -6.78125 C 0.71875 -6.789062 1.085938 -6.988281 1.390625 -7.375 C 1.691406 -7.757812 1.914062 -8.195312 2.0625 -8.6875 L 2.515625 -8.6875 L 2.515625 -6.78125 L 4.796875 -6.78125 L 4.796875 -6.25 L 2.515625 -6.21875 C 2.515625 -4.84375 2.507812 -3.882812 2.5 -3.34375 C 2.5 -2.8125 2.5 -2.515625 2.5 -2.453125 C 2.5 -1.804688 2.570312 -1.328125 2.71875 -1.015625 C 2.875 -0.710938 3.144531 -0.5625 3.53125 -0.5625 C 3.757812 -0.5625 3.988281 -0.628906 4.21875 -0.765625 C 4.457031 -0.910156 4.660156 -1.113281 4.828125 -1.375 L 5.1875 -1.078125 C 4.84375 -0.546875 4.5 -0.195312 4.15625 -0.03125 C 3.8125 0.132812 3.472656 0.21875 3.140625 0.21875 Z M 3.140625 0.21875 "/></g></g></g><g fill="#000000" fill-opacity="1"><g transform="translate(269.207833, 264.890002)"><g><path d="M 1.9375 -8.265625 C 1.75 -8.265625 1.582031 -8.34375 1.4375 -8.5 C 1.289062 -8.65625 1.21875 -8.84375 1.21875 -9.0625 C 1.21875 -9.28125 1.289062 -9.46875 1.4375 -9.625 C 1.59375 -9.789062 1.765625 -9.875 1.953125 -9.875 C 2.160156 -9.875 2.332031 -9.796875 2.46875 -9.640625 C 2.613281 -9.484375 2.6875 -9.289062 2.6875 -9.0625 C 2.6875 -8.84375 2.609375 -8.65625 2.453125 -8.5 C 2.304688 -8.34375 2.132812 -8.265625 1.9375 -8.265625 Z M 0.59375 -0.40625 C 0.851562 -0.40625 1.039062 -0.46875 1.15625 -0.59375 C 1.269531 -0.726562 1.335938 -0.894531 1.359375 -1.09375 C 1.378906 -1.300781 1.390625 -1.625 1.390625 -2.0625 L 1.390625 -5.15625 C 1.390625 -5.414062 1.410156 -5.707031 1.453125 -6.03125 L 0.484375 -5.984375 L 0.484375 -6.546875 C 1.015625 -6.546875 1.394531 -6.578125 1.625 -6.640625 C 1.863281 -6.703125 2.046875 -6.796875 2.171875 -6.921875 L 2.5625 -6.921875 L 2.5625 -1.4375 C 2.5625 -1.03125 2.546875 -0.722656 2.515625 -0.515625 L 3.359375 -0.5625 L 3.359375 0 L 0.59375 0 Z M 0.59375 -0.40625 "/></g></g></g><g fill="#000000" fill-opacity="1"><g transform="translate(273.018748, 264.890002)"><g><path d="M 3.953125 0.21875 C 3.335938 0.21875 2.769531 0.0703125 2.25 -0.21875 C 1.726562 -0.519531 1.316406 -0.929688 1.015625 -1.453125 C 0.710938 -1.972656 0.5625 -2.566406 0.5625 -3.234375 C 0.5625 -3.929688 0.707031 -4.566406 1 -5.140625 C 1.300781 -5.722656 1.710938 -6.175781 2.234375 -6.5 C 2.753906 -6.832031 3.328125 -7 3.953125 -7 C 4.578125 -7 5.148438 -6.847656 5.671875 -6.546875 C 6.203125 -6.242188 6.617188 -5.828125 6.921875 -5.296875 C 7.222656 -4.773438 7.375 -4.191406 7.375 -3.546875 C 7.375 -2.859375 7.222656 -2.222656 6.921875 -1.640625 C 6.617188 -1.066406 6.207031 -0.613281 5.6875 -0.28125 C 5.164062 0.0507812 4.585938 0.21875 3.953125 0.21875 Z M 4.0625 -0.328125 C 4.726562 -0.328125 5.21875 -0.597656 5.53125 -1.140625 C 5.84375 -1.679688 6 -2.351562 6 -3.15625 C 6 -4.070312 5.828125 -4.851562 5.484375 -5.5 C 5.148438 -6.15625 4.640625 -6.484375 3.953125 -6.484375 C 3.285156 -6.484375 2.78125 -6.207031 2.4375 -5.65625 C 2.101562 -5.101562 1.9375 -4.425781 1.9375 -3.625 C 1.9375 -3.039062 2.015625 -2.5 2.171875 -2 C 2.335938 -1.5 2.578125 -1.09375 2.890625 -0.78125 C 3.210938 -0.476562 3.601562 -0.328125 4.0625 -0.328125 Z M 4.0625 -0.328125 "/></g></g></g><g fill="#000000" fill-opacity="1"><g transform="translate(280.952514, 264.890002)"><g><path d="M 0.59375 -0.40625 C 0.851562 -0.40625 1.039062 -0.46875 1.15625 -0.59375 C 1.269531 -0.726562 1.335938 -0.894531 1.359375 -1.09375 C 1.378906 -1.289062 1.390625 -1.613281 1.390625 -2.0625 L 1.40625 -5.15625 C 1.40625 -5.53125 1.425781 -5.820312 1.46875 -6.03125 L 0.5 -5.984375 L 0.5 -6.546875 C 1.03125 -6.546875 1.394531 -6.578125 1.59375 -6.640625 C 1.800781 -6.703125 1.972656 -6.796875 2.109375 -6.921875 L 2.5 -6.921875 C 2.507812 -6.742188 2.523438 -6.46875 2.546875 -6.09375 C 2.859375 -6.363281 3.207031 -6.582031 3.59375 -6.75 C 3.988281 -6.914062 4.378906 -7 4.765625 -7 C 5.546875 -7 6.117188 -6.75 6.484375 -6.25 C 6.847656 -5.757812 7.03125 -4.992188 7.03125 -3.953125 L 7.03125 -1.4375 C 7.03125 -1.03125 7.007812 -0.722656 6.96875 -0.515625 L 7.828125 -0.5625 L 7.828125 0 L 5.0625 0 L 5.0625 -0.40625 C 5.320312 -0.40625 5.507812 -0.46875 5.625 -0.59375 C 5.738281 -0.726562 5.804688 -0.894531 5.828125 -1.09375 C 5.847656 -1.300781 5.859375 -1.625 5.859375 -2.0625 L 5.859375 -3.953125 C 5.847656 -4.734375 5.71875 -5.320312 5.46875 -5.71875 C 5.226562 -6.113281 4.847656 -6.3125 4.328125 -6.3125 C 4.003906 -6.3125 3.679688 -6.226562 3.359375 -6.0625 C 3.035156 -5.894531 2.769531 -5.679688 2.5625 -5.421875 C 2.570312 -5.328125 2.578125 -5.148438 2.578125 -4.890625 L 2.5625 -1.4375 C 2.5625 -1.03125 2.546875 -0.722656 2.515625 -0.515625 L 3.359375 -0.5625 L 3.359375 0 L 0.59375 0 Z M 0.59375 -0.40625 "/></g></g></g><path stroke-linecap="round" transform="matrix(0.75, 0, 0, 0.75, 29.974668, 261.124552)" fill="none" stroke-linejoin="miter" d="M 0.502526 0.500597 L 50.492112 0.500597 " stroke="#000000" stroke-width="1" stroke-opacity="1" stroke-miterlimit="4"/><path stroke-linecap="round" transform="matrix(0.75, 0, 0, 0.75, 297.912758, 261.548421)" fill="none" stroke-linejoin="miter" d="M 0.50174 0.497938 L 50.491326 0.497938 " stroke="#000000" stroke-width="1" stroke-opacity="1" stroke-miterlimit="4"/></svg>